<svg width="220" height="142" viewBox="0 0 220 142" fill="none" xmlns="http://www.w3.org/2000/svg">
<path d="M108.39 129C113.361 129 117.39 124.971 117.39 120C117.39 115.029 113.361 111 108.39 111C103.419 111 99.39 115.029 99.39 120C99.39 124.971 103.419 129 108.39 129Z" fill="#A27AF7"/>
<path opacity="0.5" d="M82.9301 94.54L91.4301 103.04C93.6801 100.78 96.3801 98.97 99.3901 97.75V85.14C93.0701 86.76 87.4101 90.07 82.9301 94.54ZM117.39 85.14V97.75C120.4 98.97 123.1 100.78 125.35 103.04L133.84 94.55C129.37 90.07 123.72 86.76 117.39 85.14Z" fill="white"/>
<path opacity="0.75" d="M65.97 77.58L74.47 86.07C81.14 79.4 89.76 74.68 99.39 72.85V60.67C86.43 62.62 74.82 68.72 65.97 77.58ZM117.39 60.67V72.85C127.02 74.68 135.64 79.4 142.31 86.08L150.81 77.58C141.96 68.72 130.35 62.63 117.39 60.67Z" fill="white"/>
<path d="M49 60.6L57.5 69.11C68.54 58.08 83.13 50.6 99.39 48.56V36.48C79.79 38.56 62.21 47.4 49 60.6ZM117.39 36.48V48.56C133.65 50.6 148.24 58.08 159.28 69.11L167.79 60.6C154.58 47.4 136.99 38.56 117.39 36.48Z" fill="white"/>
<path d="M114.39 36.22V102H102.39V36.22C104.37 36.07 106.37 36 108.39 36C110.41 36 112.41 36.07 114.39 36.22Z" fill="#A27AF7"/>
<path opacity="0.5" fill-rule="evenodd" clip-rule="evenodd" d="M53.4779 5.35661L56.6066 8.48529L54.4853 10.6066L51.3566 7.47793L48.2279 10.6066L46.1066 8.48529L49.2353 5.35661L46 2.12133L48.1213 9.29832e-06L51.3566 3.23529L54.5919 9.29832e-06L56.7132 2.12133L53.4779 5.35661Z" fill="#A27AF7"/>
<path opacity="0.5" fill-rule="evenodd" clip-rule="evenodd" d="M187.956 125.713L194.213 131.971L189.971 136.213L183.713 129.956L177.456 136.213L173.213 131.971L179.471 125.713L173 119.243L177.243 115L183.713 121.471L190.184 115L194.426 119.243L187.956 125.713Z" fill="#A27AF7"/>
<path fill-rule="evenodd" clip-rule="evenodd" d="M39.2169 134.035L43.9099 138.728L40.728 141.91L36.0349 137.217L31.3419 141.91L28.1599 138.728L32.853 134.035L28 129.182L31.182 126L36.0349 130.853L40.8879 126L44.0698 129.182L39.2169 134.035Z" fill="white"/>
<path opacity="0.5" fill-rule="evenodd" clip-rule="evenodd" d="M214 67C217.314 67 220 64.3137 220 61C220 57.6863 217.314 55 214 55C210.686 55 208 57.6863 208 61C208 64.3137 210.686 67 214 67ZM214 64.5C215.933 64.5 217.5 62.933 217.5 61C217.5 59.067 215.933 57.5 214 57.5C212.067 57.5 210.5 59.067 210.5 61C210.5 62.933 212.067 64.5 214 64.5Z" fill="white"/>
<path opacity="0.5" fill-rule="evenodd" clip-rule="evenodd" d="M12 77C18.6274 77 24 71.6274 24 65C24 58.3726 18.6274 53 12 53C5.37258 53 0 58.3726 0 65C0 71.6274 5.37258 77 12 77ZM12 72C15.866 72 19 68.866 19 65C19 61.134 15.866 58 12 58C8.13401 58 5 61.134 5 65C5 68.866 8.13401 72 12 72Z" fill="white"/>
<path fill-rule="evenodd" clip-rule="evenodd" d="M175 18C179.971 18 184 13.9706 184 9C184 4.02944 179.971 0 175 0C170.029 0 166 4.02944 166 9C166 13.9706 170.029 18 175 18ZM175 14.25C177.899 14.25 180.25 11.8995 180.25 9C180.25 6.1005 177.899 3.75 175 3.75C172.101 3.75 169.75 6.1005 169.75 9C169.75 11.8995 172.101 14.25 175 14.25Z" fill="#A27AF7"/>
</svg>
