<svg width="25" height="24" viewBox="0 0 25 24" fill="none" xmlns="http://www.w3.org/2000/svg">
<path opacity="0.4" fill-rule="evenodd" clip-rule="evenodd" d="M17.8736 6.76172H8.1286C5.7436 6.76172 4.1416 8.51772 4.1416 11.1317V17.2517C4.1416 19.8657 5.7436 21.6217 8.1276 21.6217H17.8736C20.2576 21.6217 21.8586 19.8657 21.8586 17.2517V11.1317C21.8586 8.51772 20.2576 6.76172 17.8736 6.76172Z" fill="#F5F77A"/>
<path fill-rule="evenodd" clip-rule="evenodd" d="M13.75 21.6258V17.4258C13.75 17.0058 13.41 16.6758 13 16.6758C12.58 16.6758 12.25 17.0058 12.25 17.4258V21.6258H13.75Z" fill="#F5F77A"/>
<path fill-rule="evenodd" clip-rule="evenodd" d="M16.6005 6.51109H13.9905C14.3565 5.46409 15.1525 3.87109 16.6005 3.87109C17.2905 3.87109 17.8515 4.46309 17.8515 5.19109C17.8515 5.91909 17.2905 6.51109 16.6005 6.51109ZM8.14453 5.19109C8.14453 4.46309 8.70553 3.87109 9.39553 3.87109C10.8445 3.87109 11.6405 5.46409 12.0065 6.51109H9.39553C8.70553 6.51109 8.14453 5.91909 8.14453 5.19109ZM16.6005 2.37109C14.7435 2.37109 13.6325 3.74309 12.9985 5.01409C12.3645 3.74309 11.2535 2.37109 9.39553 2.37109C7.87853 2.37109 6.64453 3.63609 6.64453 5.19109C6.64453 6.74609 7.87853 8.01109 9.39553 8.01109H11.2735C10.8985 8.86509 10.6785 9.78509 10.6355 10.7581C10.5545 12.6131 10.0865 13.7721 9.02253 14.7611C8.71953 15.0441 8.70153 15.5181 8.98353 15.8221C9.13153 15.9801 9.33153 16.0611 9.53353 16.0611C9.71653 16.0611 9.89953 15.9941 10.0435 15.8601C11.7705 14.2551 12.0675 12.3251 12.1335 10.8241C12.1635 10.1541 12.2955 9.51609 12.5195 8.91909C12.6485 9.31009 12.8155 9.67809 13.0335 9.99709C13.3205 10.4121 13.6925 10.7101 14.0205 10.9721C14.2655 11.1671 14.4965 11.3521 14.6605 11.5581C15.0675 12.0691 15.0985 12.8581 14.7545 13.9691C14.6325 14.3651 14.8535 14.7851 15.2495 14.9071C15.3235 14.9301 15.3975 14.9411 15.4715 14.9411C15.7915 14.9411 16.0875 14.7341 16.1875 14.4121C16.6895 12.7911 16.5735 11.5521 15.8335 10.6241C15.5655 10.2861 15.2425 10.0281 14.9565 9.80009C14.6855 9.58309 14.4295 9.37809 14.2695 9.14709C14.0585 8.83909 13.9125 8.44209 13.8295 8.01109H16.6005C18.1175 8.01109 19.3515 6.74609 19.3515 5.19109C19.3515 3.63609 18.1175 2.37109 16.6005 2.37109Z" fill="#F5F77A"/>
</svg>
