<svg width="19" height="18" viewBox="0 0 19 18" fill="none" xmlns="http://www.w3.org/2000/svg">
<path d="M9.50067 17.8519C14.3895 17.8519 18.3527 13.8888 18.3527 8.99994C18.3527 4.11112 14.3895 0.147949 9.50067 0.147949C4.61185 0.147949 0.648682 4.11112 0.648682 8.99994C0.648682 13.8888 4.61185 17.8519 9.50067 17.8519Z" fill="url(#paint0_linear_2956_3011)"/>
<path d="M9.50054 18C7.72046 18.0001 5.98033 17.4723 4.50022 16.4834C3.0201 15.4945 1.8665 14.0888 1.1853 12.4442C0.504098 10.7997 0.3259 8.99 0.67324 7.24414C1.02058 5.49828 1.87786 3.89463 3.13665 2.63601C4.82446 0.948201 7.11362 0 9.50054 0C11.8875 0 14.1766 0.948201 15.8644 2.63601C17.5522 4.32382 18.5004 6.61298 18.5004 8.9999C18.5004 11.3868 17.5522 13.676 15.8644 15.3638C15.0307 16.2022 14.0389 16.8669 12.9466 17.3194C11.8542 17.7719 10.6829 18.0032 9.50054 18ZM9.50054 0.295991C4.70105 0.295991 0.796633 4.20041 0.796633 8.9999C0.796633 13.7994 4.70105 17.7038 9.50054 17.7038C14.3 17.7038 18.2044 13.7994 18.2044 8.9999C18.2044 4.20041 14.3 0.295991 9.50054 0.295991Z" fill="url(#paint1_linear_2956_3011)"/>
<path d="M13.0905 2.59953C16.6198 4.57921 17.8804 9.06082 15.9011 12.5898C13.9217 16.1187 9.44013 17.3797 5.91085 15.4004C2.38157 13.421 1.1209 8.93939 3.10026 5.41012C5.07962 1.88084 9.56155 0.62017 13.0905 2.59953ZM6.06189 15.1299C9.44177 17.0256 13.7342 15.8179 15.6299 12.4381C17.5257 9.05819 16.3187 4.7658 12.9395 2.87002C9.56024 0.97425 5.26653 2.18194 3.37076 5.56116C1.47498 8.94038 2.68267 13.2341 6.06189 15.1299Z" fill="url(#paint2_linear_2956_3011)"/>
<path d="M9.5006 16.042C13.3898 16.042 16.5427 12.8891 16.5427 8.99987C16.5427 5.11062 13.3898 1.95776 9.5006 1.95776C5.61135 1.95776 2.4585 5.11062 2.4585 8.99987C2.4585 12.8891 5.61135 16.042 9.5006 16.042Z" fill="url(#paint3_linear_2956_3011)"/>
<path d="M13.2061 10.382C11.3034 9.31231 9.40082 8.24207 7.49836 7.17127C7.46588 7.15554 7.43887 7.1304 7.42086 7.09912C7.40284 7.06784 7.39465 7.03187 7.39734 6.99588C7.39734 6.82838 7.39734 6.66089 7.39734 6.49339C7.39734 6.32589 7.39734 6.15313 7.39734 5.983C7.39855 5.95628 7.39194 5.92978 7.37832 5.90675C7.3647 5.88372 7.34467 5.86516 7.32066 5.85335C6.84483 5.58878 6.36899 5.32431 5.89316 5.05996C5.87234 5.04815 5.84921 5.04097 5.82537 5.0389C5.7408 5.03363 5.67794 5.09945 5.67794 5.19093C5.67794 6.09807 5.67794 7.00531 5.67794 7.91267C5.67632 7.94492 5.68422 7.97694 5.70066 8.00474C5.7171 8.03253 5.74136 8.05487 5.77041 8.06898C7.67419 9.13933 9.57786 10.2105 11.4814 11.2823C11.515 11.2987 11.5429 11.3247 11.5615 11.357C11.5802 11.3893 11.5887 11.4265 11.5861 11.4637C11.5844 11.7947 11.5861 12.1261 11.5861 12.4571C11.5841 12.4888 11.5917 12.5203 11.6079 12.5476C11.6241 12.5749 11.6482 12.5967 11.6769 12.6101C11.8691 12.7151 12.0599 12.8227 12.2514 12.929C12.5269 13.0824 12.802 13.2364 13.0784 13.3897C13.1096 13.4082 13.1455 13.4174 13.1817 13.416C13.264 13.4065 13.3068 13.3502 13.3068 13.262C13.3068 12.3597 13.3068 11.4574 13.3068 10.5551C13.3093 10.5195 13.3011 10.4839 13.2831 10.453C13.2652 10.4221 13.2383 10.3974 13.2061 10.382Z" fill="url(#paint4_linear_2956_3011)"/>
<path d="M13.0991 13.467C13.0582 13.4654 13.0181 13.4541 12.9823 13.4341C12.7681 13.3166 12.5516 13.1958 12.342 13.079L11.9974 12.8872C11.859 12.8097 11.7201 12.7329 11.5808 12.6568C11.5438 12.6388 11.5129 12.6104 11.492 12.575C11.471 12.5396 11.4609 12.4988 11.463 12.4577C11.463 12.2938 11.463 12.1301 11.463 11.9664C11.463 11.7989 11.463 11.6314 11.463 11.4643C11.4655 11.4363 11.4594 11.4083 11.4453 11.3841C11.4313 11.3598 11.4101 11.3405 11.3847 11.3287C10.252 10.6925 9.11938 10.0552 7.98672 9.41679L5.67401 8.11532C5.63677 8.09682 5.60569 8.06792 5.58454 8.03212C5.5634 7.99631 5.5531 7.95514 5.55489 7.9136C5.55489 7.23352 5.55489 6.55344 5.55489 5.87336V5.19087C5.55413 5.16207 5.55935 5.13343 5.57023 5.10675C5.5811 5.08007 5.59739 5.05594 5.61807 5.03588C5.63671 5.01856 5.65872 5.00527 5.68273 4.99684C5.70673 4.9884 5.73222 4.985 5.75759 4.98685C5.78918 4.98927 5.81984 4.99859 5.84743 5.01416C6.2489 5.23661 6.65003 5.4595 7.05084 5.68283L7.27527 5.80755C7.30737 5.82406 7.33415 5.84933 7.35249 5.88043C7.37084 5.91153 7.38 5.94718 7.37892 5.98327C7.37892 6.11819 7.37892 6.25322 7.37892 6.38836V6.63845C7.37892 6.75757 7.37892 6.87703 7.37892 6.99615C7.37628 7.02281 7.38202 7.04964 7.39535 7.07288C7.40868 7.09613 7.42894 7.11463 7.45329 7.1258L10.2675 8.70896C11.2328 9.25149 12.1974 9.79401 13.1613 10.3365C13.2012 10.3566 13.2343 10.3878 13.2567 10.4264C13.2792 10.4649 13.2899 10.5092 13.2877 10.5537C13.2877 11.2338 13.2877 11.9139 13.2877 12.594V13.2613C13.2877 13.3781 13.2235 13.4551 13.1163 13.467H13.0991ZM5.74673 5.09083C5.72617 5.09041 5.70624 5.09796 5.69112 5.11189C5.68097 5.12231 5.67305 5.13468 5.66785 5.14826C5.66264 5.16184 5.66026 5.17634 5.66085 5.19087V5.87139C5.66085 6.55147 5.66085 7.23154 5.66085 7.91162C5.65913 7.93462 5.66452 7.9576 5.6763 7.97743C5.68807 7.99727 5.70565 8.01301 5.72666 8.02252L8.03937 9.32399C9.17203 9.96151 10.3047 10.5987 11.4373 11.2356C11.4792 11.2563 11.5139 11.2889 11.5374 11.3293C11.5608 11.3696 11.5718 11.416 11.569 11.4626C11.569 11.6298 11.569 11.797 11.569 11.9641C11.569 12.1313 11.569 12.2958 11.569 12.4577C11.5671 12.48 11.5723 12.5023 11.5837 12.5215C11.5952 12.5406 11.6123 12.5557 11.6328 12.5647C11.7723 12.641 11.9113 12.7178 12.0497 12.795L12.3943 12.9869C12.6039 13.1037 12.8204 13.2245 13.0343 13.3416C13.0561 13.3547 13.081 13.3616 13.1064 13.3617C13.1261 13.3594 13.1854 13.3528 13.1854 13.2597V12.5946C13.1854 11.9145 13.1854 11.2345 13.1854 10.5544C13.1878 10.5284 13.182 10.5023 13.1688 10.4798C13.1557 10.4572 13.1358 10.4394 13.112 10.4287C12.1467 9.88637 11.1822 9.34374 10.2185 8.80077L7.40426 7.21761C7.36365 7.19721 7.32989 7.16537 7.30715 7.12602C7.2844 7.08667 7.27366 7.04153 7.27625 6.99615C7.27625 6.87736 7.27625 6.75856 7.27625 6.63977V6.38967C7.27625 6.25432 7.27625 6.11907 7.27625 5.98393C7.27748 5.96651 7.27334 5.94913 7.2644 5.93413C7.25546 5.91913 7.24214 5.90723 7.22623 5.90002L7.00214 5.77497C6.60089 5.55164 6.19975 5.32853 5.79873 5.10564C5.78482 5.09752 5.76934 5.09247 5.75332 5.09083H5.74673Z" fill="url(#paint5_linear_2956_3011)"/>
<path d="M13.4284 7.61409C13.4313 7.5746 13.4222 7.53515 13.4024 7.50088C13.3826 7.46661 13.3529 7.4391 13.3172 7.42191C12.2929 6.83551 11.2692 6.24812 10.246 5.65974C9.89498 5.45769 9.54397 5.25619 9.19297 5.05524C9.16094 5.03583 9.12371 5.02675 9.08635 5.02924C9.00375 5.0401 8.96689 5.09308 8.96657 5.18621C8.96657 5.43718 8.96657 5.68848 8.96657 5.94011C8.96657 6.18987 8.96657 6.43997 8.96657 6.69006C8.96407 6.72164 8.97095 6.75326 8.98634 6.78095C9.00174 6.80864 9.02497 6.83117 9.05311 6.84571C10.4352 7.63965 11.8173 8.43435 13.1994 9.22982C13.3086 9.29268 13.4297 9.22982 13.4297 9.09622C13.4256 8.60196 13.4251 8.10791 13.4284 7.61409Z" fill="url(#paint6_linear_2956_3011)"/>
<path d="M13.2154 9.30517C13.1757 9.30494 13.1367 9.29415 13.1025 9.27391C11.7023 8.46736 10.2817 7.65159 8.95623 6.89012C8.9201 6.87092 8.89027 6.84171 8.87031 6.80599C8.85035 6.77028 8.84111 6.72957 8.84368 6.68873C8.84368 6.50972 8.84368 6.33049 8.84368 6.15103V5.72028C8.84368 5.54192 8.84368 5.36357 8.84368 5.18521C8.84368 5.02068 8.94734 4.98448 9.00822 4.97658C9.05692 4.97275 9.10559 4.98426 9.14742 5.00949C9.42153 5.16514 9.69927 5.32474 9.96812 5.4794L10.8076 5.96182C11.6154 6.42614 12.451 6.90625 13.2733 7.37682C13.3171 7.39851 13.3535 7.43267 13.378 7.47499C13.4025 7.51732 13.4139 7.56594 13.4108 7.61474C13.4079 8.14487 13.4079 8.62926 13.4108 9.09555C13.4126 9.13233 13.4044 9.16889 13.387 9.20135C13.3696 9.2338 13.3437 9.26093 13.3121 9.27983C13.2827 9.29663 13.2493 9.30536 13.2154 9.30517ZM9.02961 5.07958H9.02369C8.97794 5.0855 8.94964 5.10525 8.94964 5.18488C8.94964 5.36324 8.94964 5.54159 8.94964 5.71995V6.1507C8.94964 6.33005 8.94964 6.50972 8.94964 6.68906C8.94722 6.71139 8.95169 6.73392 8.96245 6.75363C8.97322 6.77334 8.98977 6.78928 9.00986 6.7993C10.3367 7.56077 11.7569 8.37653 13.1561 9.18309C13.1718 9.19331 13.1899 9.19921 13.2085 9.2002C13.2272 9.20118 13.2458 9.19721 13.2624 9.18868C13.2777 9.17858 13.29 9.1646 13.2981 9.14818C13.3062 9.13176 13.3098 9.11349 13.3085 9.09522C13.3055 8.6286 13.3055 8.14421 13.3085 7.61441C13.3113 7.58413 13.3045 7.55375 13.2893 7.52746C13.274 7.50117 13.2509 7.48027 13.2233 7.46764C12.4006 6.99707 11.5654 6.51663 10.7576 6.05264L9.9181 5.57022C9.64925 5.41589 9.37184 5.25596 9.09773 5.10064C9.07711 5.0881 9.0537 5.08087 9.02961 5.07958Z" fill="url(#paint7_linear_2956_3011)"/>
<path d="M10.0818 11.6581C8.69967 10.8641 7.31757 10.0694 5.93548 9.27395C5.82557 9.21044 5.70217 9.27823 5.70513 9.40756C5.71237 9.65864 5.7071 9.91005 5.7071 10.1615C5.7071 10.4129 5.70941 10.6551 5.7071 10.9038C5.70442 10.939 5.71241 10.9741 5.73002 11.0047C5.74764 11.0352 5.77406 11.0597 5.80583 11.075C6.85731 11.6774 7.90826 12.2807 8.95865 12.8848C9.28673 13.0737 9.61317 13.2613 9.94125 13.4489C9.97224 13.4676 10.008 13.4769 10.0442 13.4755C10.1259 13.4663 10.168 13.4097 10.168 13.3251C10.168 12.8187 10.168 12.3123 10.168 11.8058C10.1694 11.7755 10.162 11.7454 10.1467 11.7192C10.1314 11.693 10.1089 11.6718 10.0818 11.6581Z" fill="url(#paint8_linear_2956_3011)"/>
<path d="M9.96314 13.5282C9.922 13.527 9.88179 13.5157 9.84599 13.4953C9.59031 13.3499 9.331 13.2008 9.08025 13.0567L8.30529 12.6111C7.44049 12.1142 6.57559 11.6176 5.71057 11.1211C5.67053 11.1013 5.63724 11.0702 5.61487 11.0315C5.59251 10.9929 5.58207 10.9485 5.58486 10.9039C5.58717 10.7265 5.58651 10.5459 5.58486 10.3712C5.58486 10.3017 5.58486 10.232 5.58486 10.1625C5.58486 10.0931 5.58486 10.0148 5.58486 9.94106C5.58486 9.76698 5.58684 9.58665 5.5819 9.41026C5.57973 9.37384 5.58742 9.3375 5.60415 9.30507C5.62089 9.27264 5.64605 9.24532 5.677 9.22599C5.70949 9.20741 5.74638 9.19794 5.78379 9.19858C5.8212 9.19921 5.85775 9.20993 5.88958 9.22961C7.23087 10.0029 8.59586 10.7868 9.91609 11.5449L10.0362 11.6137C10.0716 11.6318 10.101 11.6596 10.1211 11.6939C10.1412 11.7282 10.151 11.7675 10.1494 11.8072C10.1494 12.165 10.1494 12.5229 10.1494 12.881V13.3262C10.1494 13.4394 10.0836 13.5167 9.97894 13.5286L9.96314 13.5282ZM5.77935 9.302C5.76288 9.30183 5.74669 9.30628 5.73262 9.31483C5.71766 9.32459 5.70563 9.33822 5.69781 9.35427C5.68998 9.37032 5.68666 9.3882 5.68819 9.40599C5.69346 9.58434 5.69214 9.76566 5.69115 9.94073C5.69115 10.0144 5.69115 10.0878 5.69115 10.1615C5.69115 10.2352 5.69115 10.3004 5.69115 10.3702C5.69115 10.5452 5.69115 10.7262 5.68951 10.9046C5.68713 10.9305 5.69293 10.9565 5.7061 10.9789C5.71926 11.0013 5.73912 11.0191 5.76289 11.0296C6.62835 11.5254 7.49325 12.0221 8.35761 12.5196L9.13224 12.9652C9.38266 13.1093 9.64197 13.2584 9.89766 13.4035C9.91912 13.4167 9.94386 13.4237 9.96907 13.4236C9.98815 13.4216 10.0464 13.415 10.0464 13.3249V12.88C10.0464 12.522 10.0464 12.1639 10.0464 11.8059C10.0478 11.7847 10.0427 11.7636 10.0318 11.7453C10.0209 11.727 10.0048 11.7125 9.98552 11.7036L9.86541 11.6345C8.54518 10.8776 7.1802 10.0924 5.83858 9.31911C5.82064 9.30839 5.80023 9.3025 5.77935 9.302Z" fill="url(#paint9_linear_2956_3011)"/>
<defs>
<linearGradient id="paint0_linear_2956_3011" x1="0.648682" y1="8.99994" x2="18.3527" y2="8.99994" gradientUnits="userSpaceOnUse">
<stop stop-color="#4DF0FF"/>
<stop offset="0.3" stop-color="#19C8FD"/>
<stop offset="0.73" stop-color="#10AFC7"/>
<stop offset="1" stop-color="#10B0CA"/>
</linearGradient>
<linearGradient id="paint1_linear_2956_3011" x1="0.50047" y1="8.9999" x2="18.5006" y2="8.9999" gradientUnits="userSpaceOnUse">
<stop stop-color="#001490"/>
<stop offset="0.38" stop-color="#C1C6E4"/>
<stop offset="0.67" stop-color="#44D6F2"/>
<stop offset="1" stop-color="#09214A"/>
</linearGradient>
<linearGradient id="paint2_linear_2956_3011" x1="15.9014" y1="12.5898" x2="3.10124" y2="5.40955" gradientUnits="userSpaceOnUse">
<stop stop-color="#001490"/>
<stop offset="0.37" stop-color="white"/>
<stop offset="0.67" stop-color="#44D6F2"/>
<stop offset="1" stop-color="#000694"/>
</linearGradient>
<linearGradient id="paint3_linear_2956_3011" x1="2.45093" y1="4.73808" x2="15.4311" y2="12.5851" gradientUnits="userSpaceOnUse">
<stop stop-color="#121423"/>
<stop offset="0.22" stop-color="#161726"/>
<stop offset="0.35" stop-color="#1C1B2B"/>
<stop offset="0.75" stop-color="#3F3F4C"/>
<stop offset="0.82" stop-color="#3B3B48"/>
<stop offset="0.9" stop-color="#2F2E3C"/>
<stop offset="0.97" stop-color="#1A1929"/>
<stop offset="1" stop-color="#121121"/>
</linearGradient>
<linearGradient id="paint4_linear_2956_3011" x1="5.09582" y1="6.48023" x2="12.4476" y2="11.075" gradientUnits="userSpaceOnUse">
<stop stop-color="#4DF0FF"/>
<stop offset="0.28" stop-color="#19C8FD"/>
<stop offset="1" stop-color="#12B7D7"/>
</linearGradient>
<linearGradient id="paint5_linear_2956_3011" x1="5.55587" y1="9.22659" x2="13.2887" y2="9.22659" gradientUnits="userSpaceOnUse">
<stop stop-color="#001490"/>
<stop offset="0.37" stop-color="white"/>
<stop offset="0.67" stop-color="#44D6F2"/>
<stop offset="1" stop-color="#000694"/>
</linearGradient>
<linearGradient id="paint6_linear_2956_3011" x1="6.51236" y1="4.21348" x2="13.8641" y2="8.80828" gradientUnits="userSpaceOnUse">
<stop stop-color="#4DF0FF"/>
<stop offset="0.3" stop-color="#19C8FD"/>
<stop offset="0.67" stop-color="#0CA4B0"/>
<stop offset="1" stop-color="#0EAABD"/>
</linearGradient>
<linearGradient id="paint7_linear_2956_3011" x1="8.8427" y1="7.14022" x2="13.4112" y2="7.14022" gradientUnits="userSpaceOnUse">
<stop stop-color="#001490"/>
<stop offset="0.37" stop-color="white"/>
<stop offset="0.67" stop-color="#44D6F2"/>
<stop offset="1" stop-color="#000694"/>
</linearGradient>
<linearGradient id="paint8_linear_2956_3011" x1="3.69978" y1="8.71388" x2="11.0515" y2="13.3087" gradientUnits="userSpaceOnUse">
<stop stop-color="#4DF0FF"/>
<stop offset="0.3" stop-color="#19C8FD"/>
<stop offset="0.63" stop-color="#10AFC6"/>
<stop offset="1" stop-color="#36DEFE"/>
</linearGradient>
<linearGradient id="paint9_linear_2956_3011" x1="5.58355" y1="11.363" x2="10.1514" y2="11.363" gradientUnits="userSpaceOnUse">
<stop stop-color="#001490"/>
<stop offset="0.37" stop-color="white"/>
<stop offset="0.67" stop-color="#44D6F2"/>
<stop offset="1" stop-color="#000694"/>
</linearGradient>
</defs>
</svg>
