<svg width="21" height="16" viewBox="0 0 21 16" fill="none" xmlns="http://www.w3.org/2000/svg">
<path opacity="0.4" d="M12.2507 5.703V3.68315C11.8542 3.68315 11.5254 3.36374 11.5254 2.97856V0.57353C11.5254 0.253173 11.2643 0.000457764 10.9354 0.000457764H4.29135C2.20237 0.000457764 0.500244 1.65297 0.500244 3.68315V6.11542C0.500244 6.30426 0.577614 6.48275 0.71301 6.61428C0.848407 6.74486 1.03216 6.82002 1.22558 6.82002C1.96059 6.82002 2.52152 7.32733 2.52152 7.99435C2.52152 8.69049 1.95092 9.24478 1.23525 9.25323C0.838735 9.25323 0.500244 9.52568 0.500244 9.92025V12.3262C0.500244 14.3555 2.20237 15.9995 4.28168 15.9995H10.9354C11.2643 15.9995 11.5254 15.7449 11.5254 15.4264V13.3963C11.5254 13.0026 11.8542 12.6917 12.2507 12.6917V10.87C11.8542 10.87 11.5254 10.5497 11.5254 10.1655V6.4076C11.5254 6.02242 11.8542 5.703 12.2507 5.703Z" fill="#64E5F4"/>
<path d="M18.479 7.99483C18.479 8.69004 19.0592 9.24432 19.7652 9.25371C20.1618 9.25371 20.5002 9.52616 20.5002 9.91134V12.3258C20.5002 14.3559 18.8078 16 16.7188 16H13.566C13.2469 16 12.9761 15.7454 12.9761 15.426V13.3967C12.9761 13.0022 12.6569 12.6921 12.2507 12.6921V10.8705C12.6569 10.8705 12.9761 10.5502 12.9761 10.1659V6.40808C12.9761 6.02196 12.6569 5.70348 12.2507 5.70348V3.6827C12.6569 3.6827 12.9761 3.36328 12.9761 2.9781V0.574012C12.9761 0.253655 13.2469 0 13.566 0H16.7188C18.8078 0 20.5002 1.64406 20.5002 3.6733V6.04075C20.5002 6.22864 20.4229 6.40808 20.2875 6.53866C20.1521 6.67019 19.9683 6.74535 19.7749 6.74535C19.0592 6.74535 18.479 7.30996 18.479 7.99483Z" fill="#64E5F4"/>
</svg>
